<svg width="25" height="25" viewBox="0 0 25 25" fill="none" xmlns="http://www.w3.org/2000/svg">
<path d="M6.25 12.5C6.25 16 9 18.75 12.5 18.75C16 18.75 18.75 16 18.75 12.5C18.75 9 16 6.25 12.5 6.25C9 6.25 6.25 9 6.25 12.5ZM12.5 8.75C14.625 8.75 16.25 10.375 16.25 12.5C16.25 14.625 14.625 16.25 12.5 16.25C10.375 16.25 8.75 14.625 8.75 12.5C8.75 10.375 10.375 8.75 12.5 8.75ZM13.75 3.75V1.25C13.75 0.5 13.25 0 12.5 0C11.75 0 11.25 0.5 11.25 1.25V3.75C11.25 4.5 11.75 5 12.5 5C13.25 5 13.75 4.5 13.75 3.75ZM21.375 3.625C20.875 3.125 20.125 3.125 19.625 3.625L17.875 5.375C17.375 5.875 17.375 6.625 17.875 7.125C18.125 7.375 18.5 7.5 18.75 7.5C19 7.5 19.375 7.375 19.625 7.125L21.375 5.375C21.875 5 21.875 4.125 21.375 3.625ZM23.75 11.25H21.25C20.5 11.25 20 11.75 20 12.5C20 13.25 20.5 13.75 21.25 13.75H23.75C24.5 13.75 25 13.25 25 12.5C25 11.75 24.5 11.25 23.75 11.25ZM19.625 17.75C19.125 17.25 18.375 17.25 17.875 17.75C17.375 18.25 17.375 19 17.875 19.5L19.625 21.25C19.875 21.5 20.25 21.625 20.5 21.625C20.75 21.625 21.125 21.5 21.375 21.25C21.875 20.75 21.875 20 21.375 19.5L19.625 17.75ZM11.25 21.25V23.75C11.25 24.5 11.75 25 12.5 25C13.25 25 13.75 24.5 13.75 23.75V21.25C13.75 20.5 13.25 20 12.5 20C11.75 20 11.25 20.5 11.25 21.25ZM3.625 21.375C3.875 21.625 4.25 21.75 4.5 21.75C4.75 21.75 5.125 21.625 5.375 21.375L7.125 19.625C7.625 19.125 7.625 18.375 7.125 17.875C6.625 17.375 5.875 17.375 5.375 17.875L3.625 19.625C3.125 20 3.125 20.875 3.625 21.375ZM0 12.5C0 13.25 0.5 13.75 1.25 13.75H3.75C4.5 13.75 5 13.25 5 12.5C5 11.75 4.5 11.25 3.75 11.25H1.25C0.5 11.25 0 11.75 0 12.5ZM5.375 3.625C4.875 3.125 4.125 3.125 3.625 3.625C3.125 4.125 3.125 4.875 3.625 5.375L5.375 7.125C5.625 7.5 6 7.625 6.375 7.625C6.75 7.625 7 7.5 7.25 7.25C7.75 6.75 7.75 6 7.25 5.5L5.375 3.625Z" fill="#E0E0E0"/>
</svg>
